# xmcd
#
# Track frame offsets:
#	150
#	14270
#	25470
#	40145
#	54082
#	66267
#	83347
#	102647
#	117175
#	128512
#	143157
#	159697
#	175945
#	191585
#
# Disc length: 2723
#
# Revision: 1
# Processed by: cddbd v1.5.1PL0 Copyright (c) Steve Scherf et al.
# Submitted via: VisiTrax 2.9.5.180 - For more info visit www.synapsa.com
# Normalized: r0:DSETVAR1
#
DISCID=b30aa10e
DTITLE=Various Artist - Mr Music Country
DYEAR=1993
DGENRE=Country
TTITLE0=Radney Foster - Just Call me Lonesom
TTITLE1=Stonewall Jackson - A Rounder Called Cotton
TTITLE2=John Anderson - Let Go Of The Stone
TTITLE3=Pam Tillis - Shake TheSugar Tree
TTITLE4=The Oak Ridge Boys - Fear of The Flame
TTITLE5=Clint Black - Burn One Down
TTITLE6=Lorrie Morgan - it's A heartache
TTITLE7=Steve Wyles - Going Out With Your memory
TTITLE8=Charlie Barrett - I See Your Fool
TTITLE9=Lisa Stewart - That's Make One Of Us
TTITLE10=Aaron Tippin - Read between The Lines
TTITLE11=Brooks and Dunn - Texas Woman (Don't Stay Lonely Long)
TTITLE12=Alan Jackson - Tonight I Climbed The wall
TTITLE13=Martina McBride - Walk That Line
EXTD=
EXTT0=
EXTT1=
EXTT2=
EXTT3=
EXTT4=
EXTT5=
EXTT6=
EXTT7=
EXTT8=
EXTT9=
EXTT10=
EXTT11=
EXTT12=
EXTT13=
PLAYORDER=
